<svg xmlns="http://www.w3.org/2000/svg" version="1.1" viewBox="-5.0 -10.0 110.0 135.0">
 <path d="m94.793 51.75v31.582c0 6.332-5.125 11.457-11.457 11.457l-66.668 0.003907c-6.332 0-11.457-5.125-11.457-11.457v-31.582l38.875 23.332c1.832 1.082 3.875 1.625 5.918 1.625 2.043 0 4.082-0.54297 5.918-1.625l38.875-23.332zm-12.5-35.082v35.332l-29.582 17.75c-0.83203 0.5-1.75 0.75-2.707 0.75-0.95703 0-1.875-0.25-2.668-0.75l-29.625-17.75-0.003907-35.332c0-6.332 5.125-11.457 11.457-11.457h41.668c6.332 0 11.457 5.125 11.457 11.457zm-16.668 25c0-1.707-1.418-3.125-3.125-3.125h-25c-1.707 0-3.125 1.418-3.125 3.125s1.418 3.125 3.125 3.125h25c1.707 0 3.125-1.418 3.125-3.125zm0-16.668c0-1.707-1.418-3.125-3.125-3.125h-25c-1.707 0-3.125 1.418-3.125 3.125s1.418 3.125 3.125 3.125h25c1.707 0 3.125-1.418 3.125-3.125z" fill="#EE7220" /></svg>