<svg xmlns="http://www.w3.org/2000/svg" version="1.1" viewBox="-5.0 -10.0 110.0 135.0">
 <path d="m35.07 15.789c-0.82812 0-1.5-0.67187-1.5-1.5 0-0.82812 0.67188-1.5 1.5195-1.5 0.85156 0 1.5195 0.67188 1.5195 1.5 0 0.82813-0.67188 1.5-1.5391 1.5zm-6.4414 0c-0.82812 0-1.5-0.67187-1.5-1.5 0-0.82812 0.67188-1.5 1.5312-1.5 0.85156 0 1.5195 0.67188 1.5195 1.5 0 0.82813-0.67188 1.5-1.5508 1.5zm-6.4297 0c-0.82812 0-1.5-0.67187-1.5-1.5 0-0.82812 0.67188-1.5 1.5195-1.5 0.85156 0 1.5195 0.67188 1.5195 1.5 0 0.82813-0.67188 1.5-1.5391 1.5zm61.859 4.8203h-68.121v65.102c0 0.73828 0.28906 1.4102 0.78906 1.9414 0.53906 0.53125 1.2305 0.85156 2 0.85156h62.539c0.73047 0 1.4102-0.28906 1.9414-0.78906 0.53125-0.53906 0.85156-1.2383 0.85156-2zm-68.121-3h68.121v-3.3203c0-0.76172-0.32031-1.4609-0.82031-1.9688-0.5-0.51172-1.1992-0.82031-1.9688-0.82031h-62.539c-0.76953 0-1.4609 0.32031-1.9688 0.82031-0.51172 0.5-0.82031 1.1992-0.82031 1.9688v3.3203zm49.531 59.301 4.9219-4.9102c0.57812-0.58984 1.5391-0.58984 2.1211 0l4.9102 4.9102v-6.1719h-11.949v6.1719zm11.949 4.2383-5.9688-5.9688-5.9805 5.9688v1.5391h11.949zm-33.398-4.2383 4.9219-4.9102c0.57812-0.58984 1.5312-0.58984 2.1211 0l4.9102 4.9102v-6.1719h-11.949v6.1719zm11.949 4.2383-5.9688-5.9688-5.9805 5.9688v1.5391h11.949zm-33.398-4.2383 4.9219-4.9102c0.57812-0.58984 1.5312-0.58984 2.1211 0l4.9102 4.9102v-6.1719h-11.949v6.1719zm11.949 4.2383-5.9688-5.9688-5.9805 5.9688v1.5391h11.949zm6.5117-32.25 5.9102-6.1992c0.57031-0.60156 1.5195-0.62109 2.1211-0.050781l6.9102 6.9102v-22.352h-32.898v17.961l6.0508-6.0508c0.57812-0.58984 1.5312-0.58984 2.1211-0.011719l9.7891 9.7891zm14.941 4.8984-7.9219-7.9297-4.9102 5.1484 9.1094 9.1016h3.7188v-6.3203zm-7.9609 6.3203-17.828-17.828-7.1094 7.1094v10.719h24.941zm15.961 2.6094c-0.82031 0-1.5-0.67187-1.5-1.5 0-0.82812 0.67969-1.5 1.5-1.5h14.949c0.82812 0 1.5 0.67188 1.5 1.5 0 0.82813-0.67188 1.5-1.5 1.5zm0-8.7695c-0.82031 0-1.5-0.67188-1.5-1.5 0-0.82031 0.67969-1.5 1.5-1.5h14.949c0.82812 0 1.5 0.67969 1.5 1.5 0 0.82812-0.67188 1.5-1.5 1.5zm0-8.7617c-0.82031 0-1.5-0.67187-1.5-1.5 0-0.82812 0.67969-1.5 1.5-1.5h14.949c0.82812 0 1.5 0.67188 1.5 1.5 0 0.82813-0.67188 1.5-1.5 1.5zm0-8.7695c-0.82031 0-1.5-0.67188-1.5-1.5 0-0.82031 0.67969-1.5 1.5-1.5h14.949c0.82812 0 1.5 0.67969 1.5 1.5 0 0.82812-0.67188 1.5-1.5 1.5zm0-8.7617c-0.82031 0-1.5-0.67969-1.5-1.5 0-0.82812 0.67969-1.5 1.5-1.5h14.949c0.82812 0 1.5 0.67188 1.5 1.5 0 0.82031-0.67188 1.5-1.5 1.5zm0 40.07h14.949c0.82812 0 1.5 0.67188 1.5 1.5v14.949c0 0.82812-0.67188 1.5-1.5 1.5h-14.949c-0.82031 0-1.5-0.67188-1.5-1.5v-14.949c0-0.82812 0.67969-1.5 1.5-1.5zm-21.449 0h14.949c0.82812 0 1.5 0.67188 1.5 1.5v14.949c0 0.82812-0.67188 1.5-1.5 1.5h-14.949c-0.82031 0-1.5-0.67188-1.5-1.5v-14.949c0-0.82812 0.67969-1.5 1.5-1.5zm-21.449 0h14.949c0.82812 0 1.5 0.67188 1.5 1.5v14.949c0 0.82812-0.67188 1.5-1.5 1.5h-14.949c-0.82031 0-1.5-0.67188-1.5-1.5v-14.949c0-0.82812 0.67969-1.5 1.5-1.5zm0.5-43.531h35.898c0.82812 0 1.5 0.67188 1.5 1.5v35.91c0 0.82812-0.67188 1.5-1.5 1.5h-35.898c-0.82812 0-1.5-0.67188-1.5-1.5v-35.91c0-0.82812 0.67188-1.5 1.5-1.5zm-2.8398-15.711h62.539c1.5898 0 3.0391 0.64844 4.0781 1.6992 1.0586 1.0508 1.7109 2.5 1.7109 4.0898v71.422c0 1.5898-0.64844 3.0391-1.6992 4.0898l-0.10156 0.089843c-1.0391 0.98828-2.4492 1.6094-3.9883 1.6094h-62.539c-1.5898 0-3.0391-0.64844-4.0898-1.6992l-0.089843-0.10156c-1-1.0391-1.6094-2.4492-1.6094-3.9883v-71.422c0-1.5898 0.64844-3.0391 1.6992-4.0898 1.0508-1.0508 2.5-1.6992 4.0898-1.6992zm62.539-5h-62.539c-2.9609 0-5.6602 1.2109-7.6211 3.1719-1.9492 1.9609-3.1719 4.6602-3.1719 7.6211v71.422c0 2.9609 1.2188 5.6602 3.1719 7.6211 1.9609 1.9609 4.6602 3.1719 7.6211 3.1719h62.539c2.9609 0 5.6602-1.2109 7.6211-3.1719 1.9609-1.9609 3.1719-4.6602 3.1719-7.6211v-71.422c0-2.9609-1.2109-5.6602-3.1719-7.6211-1.9609-1.9609-4.6602-3.1719-7.6211-3.1719z" fill="#556B2F" /></svg>