<svg xmlns="http://www.w3.org/2000/svg" version="1.1" viewBox="-5.0 -10.0 110.0 135.0">
 <path d="m39.258 18.594c0.92188 0 1.668 0.96484 1.668 2.1523 0 0.57031-0.17188 1.0938-0.45312 1.4766-0.30469 0.41406-0.73438 0.67578-1.2109 0.67578-0.47656 0-0.90625-0.25781-1.2109-0.67578-0.28125-0.38281-0.45312-0.90625-0.45312-1.4766-0.003906-1.1914 0.74219-2.1523 1.6602-2.1523zm4.2578 12.672v-3.5c0-1.0469-0.44531-1.9922-1.1562-2.6523-0.32812-0.30469-0.71484-0.55078-1.1406-0.71875-0.5625 0.4375-1.2383 0.69531-1.957 0.69531s-1.3945-0.25781-1.957-0.69531c-0.42578 0.16797-0.8125 0.41406-1.1406 0.71875-0.71094 0.66406-1.1562 1.6055-1.1562 2.6523v3.5c1.2617 0.70312 2.7148 1.1055 4.2578 1.1055 1.5391-0.003906 2.9883-0.40625 4.25-1.1055zm-7.875-10.523c0-2.3945 1.625-4.3438 3.6172-4.3438 1.9961 0 3.6211 1.9492 3.6211 4.3438 0 0.74609-0.15625 1.4492-0.4375 2.0625 0.47656 0.24609 0.91406 0.55859 1.2969 0.92578 1.0664 1.0156 1.7305 2.4453 1.7305 4.0312v2.0273c1.5938-1.5938 2.5781-3.7891 2.5781-6.2109 0-4.8477-3.9414-8.7891-8.7891-8.7891-4.8438 0-8.7891 3.9414-8.7891 8.7891 0 2.4219 0.98438 4.6172 2.5781 6.2109v-2.0234c0-1.5859 0.66406-3.0156 1.7305-4.0312 0.38281-0.36719 0.82031-0.67969 1.2969-0.92578-0.27734-0.61328-0.43359-1.3164-0.43359-2.0664zm0.6875 21.445h-5.8594v7.8125h5.8594zm-13.672 45.898v-75.195h-1.9531v78.125h54.688v-1.9531h-51.758c-0.53906 0-0.97656-0.4375-0.97656-0.97656zm1.9531-79.102h54.688v78.125h-54.688zm50.781 73.242c0-0.53906-0.4375-0.97656-0.97656-0.97656h-31.25c-0.53906 0-0.97656 0.4375-0.97656 0.97656 0 0.53906 0.4375 0.97656 0.97656 0.97656h31.25c0.53906 0 0.97656-0.4375 0.97656-0.97656zm0-5.8594c0-0.53906-0.4375-0.97656-0.97656-0.97656h-31.25c-0.53906 0-0.97656 0.4375-0.97656 0.97656 0 0.53906 0.4375 0.97656 0.97656 0.97656h31.25c0.53906 0 0.97656-0.4375 0.97656-0.97656zm0-9.7656c0-0.53906-0.4375-0.97656-0.97656-0.97656h-31.25c-0.53906 0-0.97656 0.4375-0.97656 0.97656 0 0.53906 0.4375 0.97656 0.97656 0.97656h31.25c0.53906 0 0.97656-0.4375 0.97656-0.97656zm0-5.8594c0-0.53906-0.4375-0.97656-0.97656-0.97656h-31.25c-0.53906 0-0.97656 0.4375-0.97656 0.97656 0 0.53906 0.4375 0.97656 0.97656 0.97656h31.25c0.53906 0 0.97656-0.4375 0.97656-0.97656zm0-9.7656c0-0.53906-0.4375-0.97656-0.97656-0.97656h-31.25c-0.53906 0-0.97656 0.4375-0.97656 0.97656 0 0.53906 0.4375 0.97656 0.97656 0.97656h31.25c0.53906 0 0.97656-0.4375 0.97656-0.97656zm0-5.8594c0-0.53906-0.4375-0.97656-0.97656-0.97656h-31.25c-0.53906 0-0.97656 0.4375-0.97656 0.97656 0 0.53906 0.4375 0.97656 0.97656 0.97656h31.25c0.53906 0 0.97656-0.4375 0.97656-0.97656zm-21.484-27.344c0 0.53906 0.4375 0.97656 0.97656 0.97656h19.531c0.53906 0 0.97656-0.4375 0.97656-0.97656 0-0.53906-0.4375-0.97656-0.97656-0.97656h-19.531c-0.53906 0-0.97656 0.4375-0.97656 0.97656zm0 5.8594c0 0.53906 0.4375 0.97656 0.97656 0.97656h19.531c0.53906 0 0.97656-0.4375 0.97656-0.97656 0-0.53906-0.4375-0.97656-0.97656-0.97656h-19.531c-0.53906 0-0.97656 0.4375-0.97656 0.97656zm0 9.7656c0 0.53906 0.4375 0.97656 0.97656 0.97656h19.531c0.53906 0 0.97656-0.4375 0.97656-0.97656v-3.9062c0-0.53906-0.4375-0.97656-0.97656-0.97656h-19.531c-0.53906 0-0.97656 0.4375-0.97656 0.97656zm-25.391-9.8203c0 5.9219 4.8203 10.742 10.742 10.742 5.9219 0 10.742-4.8203 10.742-10.742s-4.8203-10.742-10.742-10.742c-5.9219 0-10.742 4.8203-10.742 10.742zm0 27.398c0 0.53906 0.4375 0.97656 0.97656 0.97656h7.8125c0.53906 0 0.97656-0.4375 0.97656-0.97656v-9.7656c0-0.53906-0.4375-0.97656-0.97656-0.97656h-7.8125c-0.53906 0-0.97656 0.4375-0.97656 0.97656zm0 15.625c0 0.53906 0.4375 0.97656 0.97656 0.97656h7.8125c0.53906 0 0.97656-0.4375 0.97656-0.97656v-9.7656c0-0.53906-0.4375-0.97656-0.97656-0.97656h-7.8125c-0.53906 0-0.97656 0.4375-0.97656 0.97656zm0 15.625c0 0.53906 0.4375 0.97656 0.97656 0.97656h7.8125c0.53906 0 0.97656-0.4375 0.97656-0.97656v-9.7656c0-0.53906-0.4375-0.97656-0.97656-0.97656h-7.8125c-0.53906 0-0.97656 0.4375-0.97656 0.97656zm44.922-51.758h-17.578v1.9531h17.578zm-37.109 27.344h-5.8594v7.8125h5.8594zm0 15.625h-5.8594v7.8125h5.8594z" fill="#556B2F"/>
</svg>