<svg width="10" height="12" viewBox="0 0 10 12" fill="none" xmlns="http://www.w3.org/2000/svg">
<path d="M5 0C4.01562 0 3.17188 0.632812 2.86719 1.5H1.625C0.992188 1.5 0.5 2.01562 0.5 2.625V10.875C0.5 11.5078 0.992188 12 1.625 12H8.375C8.98438 12 9.5 11.5078 9.5 10.875V2.625C9.5 2.01562 8.98438 1.5 8.375 1.5H7.10938C6.80469 0.632812 5.96094 0 5 0ZM5 3C4.57812 3 4.25 2.67187 4.25 2.25C4.25 1.85156 4.57812 1.5 5 1.5C5.39844 1.5 5.75 1.85156 5.75 2.25C5.75 2.67187 5.39844 3 5 3ZM3.125 4.5H6.875C7.0625 4.5 7.25 4.6875 7.25 4.875C7.25 5.08594 7.0625 5.25 6.875 5.25H3.125C2.91406 5.25 2.75 5.08594 2.75 4.875C2.75 4.6875 2.91406 4.5 3.125 4.5Z" fill="#FFFFFF"/>
</svg>
