<svg width="16" height="16" viewBox="0 0 16 16" fill="none" xmlns="http://www.w3.org/2000/svg">
<path d="M13.95 5H2.05C1.45938 5 1 5.45938 1 6.05V10.9281C1 11.4969 1.45938 11.9781 2.05 11.9781H13.95C14.5188 11.9781 15 11.4969 15 10.9281V6.05C15 5.45938 14.5188 5 13.95 5ZM13.8188 10.9281H2.18125C2.09375 10.9281 2.05 10.8625 2.05 10.7969V6.18125C2.05 6.11563 2.09375 6.05 2.18125 6.05H13.8188C13.8844 6.05 13.95 6.11563 13.95 6.18125V10.7969C13.95 10.8625 13.8844 10.9281 13.8188 10.9281Z" fill="#404D5B"/>
</svg>
