<svg width="10" height="10" viewBox="0 0 10 10" fill="none" xmlns="http://www.w3.org/2000/svg">
<g clip-path="url(#clip0_4185_4034)">
<path d="M9.45938 4.20972C8.645 4.00743 8.25875 3.08159 8.69063 2.36735C8.89188 2.03474 8.83125 1.74805 8.63188 1.55072L8.43813 1.35836C8.23938 1.16102 7.95063 1.10083 7.61563 1.30003C6.89563 1.72882 5.96312 1.34532 5.76 0.536765C5.66562 0.160099 5.41812 0 5.13688 0H4.86312C4.58188 0 4.335 0.160099 4.24 0.536765C4.03625 1.34532 3.10375 1.72882 2.38438 1.30003C2.04938 1.10021 1.76 1.1604 1.56125 1.35774L1.3675 1.5501C1.16875 1.74743 1.10812 2.03474 1.30938 2.36735C1.74125 3.08221 1.355 4.00805 0.540625 4.20972C0.1625 4.30342 0 4.54854 0 4.8284V5.10019C0 5.37944 0.16125 5.62455 0.540625 5.71887C1.355 5.92116 1.74125 6.84701 1.30938 7.56124C1.10812 7.89385 1.16875 8.18054 1.36812 8.37787L1.56188 8.57024C1.76125 8.76819 2.05063 8.82776 2.38438 8.62857C3.10437 8.19978 4.03687 8.58327 4.24 9.39183C4.33437 9.7685 4.58188 9.92859 4.86312 9.92859H5.13688C5.41812 9.92859 5.665 9.7685 5.76 9.39183C5.96375 8.58327 6.89625 8.19978 7.61563 8.62857C7.95 8.82776 8.23875 8.76819 8.43813 8.57024L8.63188 8.37787C8.83062 8.18054 8.89125 7.89385 8.69063 7.56124C8.25875 6.84639 8.645 5.92054 9.45938 5.71887C9.83875 5.62517 10 5.37944 10 5.10019V4.8284C10 4.54854 9.8375 4.30342 9.45938 4.20972ZM5 6.82591C3.96438 6.82591 3.125 5.99253 3.125 4.9643C3.125 3.93607 3.96438 3.10269 5 3.10269C6.03562 3.10269 6.875 3.93607 6.875 4.9643C6.875 5.99253 6.03562 6.82591 5 6.82591Z" fill="white"/>
</g>
<defs>
<clipPath id="clip0_4185_4034">
<rect width="10" height="10" fill="white"/>
</clipPath>
</defs>
</svg>
