<svg width="16" height="16" viewBox="0 0 16 16" fill="none" xmlns="http://www.w3.org/2000/svg">
<path d="M13.6667 2.90477V4.09523C13.6667 5.14435 11.0538 6 7.83333 6C4.61284 6 2 5.14435 2 4.09523V2.90477C2 1.85565 4.61284 1 7.83333 1C11.0538 1 13.6667 1.85565 13.6667 2.90477ZM13.6667 5.58333V8.2619C13.6667 9.31102 11.0538 10.1667 7.83333 10.1667C4.61284 10.1667 2 9.31102 2 8.2619V5.58333C3.25326 6.44643 5.54708 6.84823 7.83333 6.84823C10.1196 6.84823 12.4134 6.44643 13.6667 5.58333ZM13.6667 9.75V12.4286C13.6667 13.4777 11.0538 14.3333 7.83333 14.3333C4.61284 14.3333 2 13.4777 2 12.4286V9.75C3.25326 10.6131 5.54708 11.0149 7.83333 11.0149C10.1196 11.0149 12.4134 10.6131 13.6667 9.75Z" fill="#000000"/>
</svg>
