<svg width="16" height="16" viewBox="0 0 16 16" fill="none" xmlns="http://www.w3.org/2000/svg">
<g clip-path="url(#clip0_8750_2389)">
<path d="M11.5123 8.26342C14.3874 6.32588 14.6999 3.54456 14.4186 1.57577C12.4498 1.29451 9.66851 1.60702 7.69972 4.48208C6.76219 5.85712 5.57467 8.48217 4.9184 9.91971L6.01218 11.0135C7.48096 10.4197 10.106 9.23219 11.5123 8.26342ZM3.69963 8.98219H0.762059C0.480803 8.98219 0.230797 8.85718 0.105795 8.60718C-0.0504589 8.38842 -0.0192081 8.10717 0.105795 7.85716L1.73083 5.1071C2.13709 4.41958 2.88711 3.98207 3.66837 3.98207H6.23093C6.32468 3.85707 6.38719 3.76332 6.48094 3.63832C9.0435 -0.14302 12.8561 -0.268023 15.1061 0.169487C15.4811 0.231988 15.7624 0.513245 15.8249 0.888253C16.2624 3.1383 16.1374 6.95089 12.3561 9.51345C12.2311 9.6072 12.1373 9.6697 12.0123 9.76345V12.326C12.0123 13.1073 11.5748 13.8573 10.8873 14.2636L8.13723 15.8886C7.88722 16.0448 7.60596 16.0448 7.38721 15.8886C7.1372 15.7636 7.0122 15.5136 7.0122 15.2636V12.2323C6.73094 12.3573 6.48094 12.451 6.29343 12.5448C5.91843 12.701 5.48092 12.6073 5.19966 12.326L3.60587 10.7635C3.32462 10.451 3.23087 10.0447 3.41837 9.6697C3.48087 9.4822 3.57462 9.23219 3.69963 8.98219ZM12.7623 4.48208C12.7623 4.95084 12.5123 5.3571 12.1373 5.57586C11.7311 5.79461 11.2623 5.79461 10.8873 5.57586C10.481 5.3571 10.2623 4.95084 10.2623 4.48208C10.2623 4.04457 10.481 3.63832 10.8873 3.41956C11.2623 3.20081 11.7311 3.20081 12.1373 3.41956C12.5123 3.63832 12.7623 4.04457 12.7623 4.48208Z" fill="#CE983B"/>
</g>
<defs>
<clipPath id="clip0_8750_2389">
<rect width="16" height="16" fill="white"/>
</clipPath>
</defs>
</svg>
