<svg width="18" height="16" viewBox="0 0 18 16" fill="none" xmlns="http://www.w3.org/2000/svg">
<path d="M2.875 10C2.51033 10 2.16059 9.85952 1.90273 9.60948C1.64487 9.35943 1.5 9.02029 1.5 8.66667V3.33333C1.5 2.97971 1.64487 2.64057 1.90273 2.39052C2.16059 2.14048 2.51033 2 2.875 2H11.125C11.4897 2 11.8394 2.14048 12.0973 2.39052C12.3551 2.64057 12.5 2.97971 12.5 3.33333V8.66667C12.5 9.02029 12.3551 9.35943 12.0973 9.60948C11.8394 9.85952 11.4897 10 11.125 10H8.375" stroke="#33768E" stroke-width="2" stroke-linejoin="round"/>
<path d="M15.125 6C15.4897 6 15.8394 6.14048 16.0973 6.39052C16.3551 6.64057 16.5 6.97971 16.5 7.33333V12.6667C16.5 13.0203 16.3551 13.3594 16.0973 13.6095C15.8394 13.8595 15.4897 14 15.125 14H6.875C6.51033 14 6.16059 13.8595 5.90273 13.6095C5.64487 13.3594 5.5 13.0203 5.5 12.6667V7.33333C5.5 6.97971 5.64487 6.64057 5.90273 6.39052C6.16059 6.14048 6.51033 6 6.875 6H9.625" stroke="#33768E" stroke-width="2" stroke-linejoin="round"/>
</svg>
