<svg width="16" height="16" viewBox="0 0 16 16" fill="none" xmlns="http://www.w3.org/2000/svg">
<g clip-path="url(#clip0_261_256)">
<path fill-rule="evenodd" clip-rule="evenodd" d="M11.6654 4.8079L8.80805 7.66513C8.59376 7.87948 8.3031 7.99994 8 8C7.6969 7.99994 7.40624 7.87948 7.19195 7.66513L4.33463 4.8079C4.12037 4.59358 4 4.30293 4 3.99988C4 3.69682 4.12037 3.40618 4.33463 3.19185L7.19195 0.334623C7.40628 0.120364 7.69694 0 8 0C8.30306 0 8.59372 0.120364 8.80805 0.334623L11.6654 3.19185C11.8796 3.40618 12 3.69682 12 3.99988C12 4.30293 11.8796 4.59358 11.6654 4.8079ZM9.64495 3.99988L8 5.64477L6.35505 3.99988L8 2.35498L9.64495 3.99988ZM2 12.25C2 13.2165 2.7835 14 3.75 14C4.7165 14 5.5 13.2165 5.5 12.25C5.5 11.2835 4.7165 10.5 3.75 10.5C2.7835 10.5 2 11.2835 2 12.25ZM3.75 16C1.67893 16 0 14.3211 0 12.25C0 10.1789 1.67893 8.5 3.75 8.5C5.82107 8.5 7.5 10.1789 7.5 12.25C7.5 14.3211 5.82107 16 3.75 16ZM11 11V14H14V11H11ZM10 9H15C15.5523 9 16 9.44772 16 10V15C16 15.5523 15.5523 16 15 16H10C9.44771 16 9 15.5523 9 15V10C9 9.44771 9.44772 9 10 9Z" fill="#33768E"/>
</g>
<defs>
<clipPath id="clip0_261_256">
<rect width="16" height="16" fill="white"/>
</clipPath>
</defs>
</svg>
