<svg width="16" height="16" viewBox="0 0 16 16" fill="none" xmlns="http://www.w3.org/2000/svg">
<path d="M14.182 1.9739L11.4737 1.34891C11.1794 1.28121 10.8773 1.43485 10.7576 1.71089L9.50759 4.62749C9.39821 4.88269 9.47113 5.18217 9.68727 5.35664L11.2654 6.64828C10.3279 8.64564 8.6899 10.3071 6.65088 11.2628L5.35924 9.68468C5.18216 9.46853 4.88529 9.39562 4.63008 9.50499L1.71348 10.755C1.43484 10.8774 1.2812 11.1794 1.3489 11.4737L1.97389 14.182C2.03899 14.4632 2.28899 14.6663 2.58325 14.6663C9.25238 14.6663 14.6663 9.26281 14.6663 2.58326C14.6663 2.2916 14.4658 2.039 14.182 1.9739Z" fill="#404D5B"/>
</svg>
