<svg width="16" height="16" viewBox="0 0 16 16" fill="none" xmlns="http://www.w3.org/2000/svg">
<path d="M6.50111 1.49985C7.82742 1.49985 9.09941 2.02659 10.0372 2.96418C10.9751 3.90177 11.502 5.17341 11.502 6.49937C11.502 7.82532 10.9751 9.09696 10.0372 10.0346C9.09941 10.9721 7.82742 11.4989 6.50111 11.4989C5.1748 11.4989 3.90281 10.9721 2.96497 10.0346C2.02713 9.09696 1.50026 7.82532 1.50026 6.49937C1.50026 5.17341 2.02713 3.90177 2.96497 2.96418C3.90281 2.02659 5.1748 1.49985 6.50111 1.49985ZM6.50111 12.9987C8.02637 12.9987 9.42974 12.4738 10.5362 11.5957L14.7213 15.7797C15.0151 16.0734 15.4901 16.0734 15.7808 15.7797C16.0715 15.486 16.0746 15.011 15.7808 14.7204L11.5989 10.5333C12.4771 9.42721 13.0022 8.02422 13.0022 6.49937C13.0022 2.90909 10.0923 0 6.50111 0C2.90987 0 0 2.90909 0 6.49937C0 10.0896 2.90987 12.9987 6.50111 12.9987ZM3.25056 6.74934V8.74915C3.25056 9.16473 3.58499 9.49907 4.00068 9.49907C4.41638 9.49907 4.75081 9.16473 4.75081 8.74915V6.74934C4.75081 6.33376 4.41638 5.99941 4.00068 5.99941C3.58499 5.99941 3.25056 6.33376 3.25056 6.74934ZM5.75098 3.74963V8.74915C5.75098 9.16473 6.08541 9.49907 6.50111 9.49907C6.91681 9.49907 7.25124 9.16473 7.25124 8.74915V3.74963C7.25124 3.33405 6.91681 2.99971 6.50111 2.99971C6.08541 2.99971 5.75098 3.33405 5.75098 3.74963ZM8.25141 5.74944V8.74915C8.25141 9.16473 8.58584 9.49907 9.00154 9.49907C9.41723 9.49907 9.75167 9.16473 9.75167 8.74915V5.74944C9.75167 5.33385 9.41723 4.99951 9.00154 4.99951C8.58584 4.99951 8.25141 5.33385 8.25141 5.74944Z" fill="#33768E"/>
</svg>
