<svg xmlns="http://www.w3.org/2000/svg" width="104" height="104" viewBox="0 0 104 104" version="1.1"><path d="M 40.024 8.603 C 25.243 12.575, 12.394 25.578, 8.542 40.460 C -0.097 73.844, 30.156 104.097, 63.540 95.458 C 78.654 91.546, 91.502 78.695, 95.448 63.540 C 104.162 30.074, 73.442 -0.377, 40.024 8.603 M 42.286 18.391 C 31.951 21.768, 24.690 28.170, 20.101 37.954 C 17.937 42.568, 17.500 44.932, 17.500 52.021 C 17.500 59.619, 17.853 61.259, 20.760 67.163 C 24.553 74.870, 29.975 80.158, 37.880 83.865 C 42.571 86.064, 44.906 86.500, 52 86.500 C 59.094 86.500, 61.429 86.064, 66.120 83.865 C 74.025 80.158, 79.447 74.870, 83.240 67.163 C 86.147 61.259, 86.500 59.619, 86.500 52.021 C 86.500 44.904, 86.066 42.574, 83.865 37.880 C 78.059 25.499, 67.021 17.983, 53.720 17.355 C 49.369 17.149, 44.826 17.561, 42.286 18.391" stroke="none" fill="#f8fafb" fill-rule="evenodd"/><path d="M 40 3.591 C 30.653 6.073, 23.849 10.005, 16.927 16.927 C -2.932 36.786, -2.932 67.214, 16.927 87.073 C 36.786 106.932, 67.214 106.932, 87.073 87.073 C 106.932 67.214, 106.932 36.786, 87.073 16.927 C 74.422 4.276, 56.524 -0.794, 40 3.591 M 40.024 8.603 C 25.243 12.575, 12.394 25.578, 8.542 40.460 C -0.097 73.844, 30.156 104.097, 63.540 95.458 C 78.654 91.546, 91.502 78.695, 95.448 63.540 C 104.162 30.074, 73.442 -0.377, 40.024 8.603 M 42.286 18.391 C 31.951 21.768, 24.690 28.170, 20.101 37.954 C 17.937 42.568, 17.500 44.932, 17.500 52.021 C 17.500 59.619, 17.853 61.259, 20.760 67.163 C 24.553 74.870, 29.975 80.158, 37.880 83.865 C 42.571 86.064, 44.906 86.500, 52 86.500 C 59.094 86.500, 61.429 86.064, 66.120 83.865 C 74.025 80.158, 79.447 74.870, 83.240 67.163 C 86.147 61.259, 86.500 59.619, 86.500 52.021 C 86.500 44.904, 86.066 42.574, 83.865 37.880 C 78.059 25.499, 67.021 17.983, 53.720 17.355 C 49.369 17.149, 44.826 17.561, 42.286 18.391" stroke="none" fill="#5cbccc" fill-rule="evenodd"/></svg>