<svg width="16" height="16" viewBox="0 0 16 16" fill="none" xmlns="http://www.w3.org/2000/svg">
<path d="M14.3203 6.66642C13.2408 6.73937 11.7006 7.80641 10.9212 8.15653C10.3147 8.42954 9.79164 8.66504 9.33523 8.66504C8.86424 8.66504 8.79338 8.32742 8.89133 7.58341C8.91426 7.41669 9.13517 5.93283 8.00144 5.99744C7.47834 6.0287 6.66139 6.51429 4.46895 8.62336L5.33384 6.46219C5.96739 4.88038 4.22512 3.30483 2.63081 4.31977L1.48666 5.08879C1.33244 5.18674 1.28659 5.39306 1.38454 5.54937L1.743 6.11206C1.84095 6.26837 2.04728 6.31422 2.20358 6.21418L3.41233 5.40348C3.7958 5.15965 4.26055 5.55354 4.09382 5.96826L2.04728 11.0867C1.90556 11.4389 2.10354 12.0016 2.66624 12.0016C2.83922 12.0016 3.01011 11.9349 3.13724 11.8057C4.01671 10.9262 6.36128 8.66504 7.53877 7.72513C7.49293 8.31908 7.49501 8.95264 7.96809 9.47157C8.28695 9.82169 8.74545 9.99884 9.33315 9.99884C10.0751 9.99884 10.7503 9.69456 11.4651 9.37362C12.1529 9.06518 13.5284 8.069 14.3495 8.00231C14.5266 7.98772 14.6663 7.85017 14.6663 7.67303V7.00404C14.6704 6.81439 14.51 6.65392 14.3203 6.66642Z" fill="#404D5B"/>
</svg>
