<svg width="16" height="16" viewBox="0 0 16 16" fill="none" xmlns="http://www.w3.org/2000/svg">
<g clip-path="url(#clip0_261_203)">
<path fill-rule="evenodd" clip-rule="evenodd" d="M2 2V4H4V2H2ZM1 0H5C5.55228 0 6 0.447715 6 1V5C6 5.55228 5.55228 6 5 6H1C0.447715 6 0 5.55228 0 5V1C0 0.447715 0.447715 0 1 0ZM13 8H15V2.33352C15 1.97985 14.8595 1.64066 14.6094 1.39058C14.3593 1.1405 13.6877 1 13.3341 1H8V3H13V8ZM1 8V13.6665C1 14.0202 1.1405 14.3593 1.39058 14.6094C1.64066 14.8595 2.31226 15 2.66593 15H8V13H3V8H1ZM16 11C16 10.4477 15.5523 10 15 10H11C10.4477 10 10 10.4477 10 11V15C10 15.5523 10.4477 16 11 16H15C15.5523 16 16 15.5523 16 15V11ZM12 14V12H14V14H12Z" fill="#000000"/>
</g>
<defs>
<clipPath id="clip0_261_203">
<rect width="16" height="16" fill="white"/>
</clipPath>
</defs>
</svg>
