<svg width="14" height="14" viewBox="0 0 14 14" fill="none" xmlns="http://www.w3.org/2000/svg">
<path d="M11.9018 13.33C12.6754 13.33 13.33 12.7052 13.33 11.9018V1.42821C13.33 0.654598 12.6754 0 11.9018 0H1.42821C0.624844 0 0 0.654598 0 1.42821V11.9018C0 12.7052 0.624844 13.33 1.42821 13.33H11.9018ZM5.80212 10.4141C5.62359 10.6223 5.29629 10.6223 5.11777 10.4141L2.0233 7.3196C1.84478 7.14107 1.84478 6.84353 2.0233 6.665L2.70766 5.98065C2.88618 5.80212 3.18373 5.80212 3.36225 5.98065L5.47482 8.06346L9.93799 3.60029C10.1165 3.42176 10.4141 3.42176 10.5926 3.60029L11.2769 4.28464C11.4555 4.46317 11.4555 4.76071 11.2769 4.93924L5.80212 10.4141Z" fill="#404D5B"/>
</svg>
