<svg width="14" height="14" viewBox="0 0 14 14" fill="none" xmlns="http://www.w3.org/2000/svg">
<path d="M0.875 10.5H9.625C10.1089 10.5 10.5 10.1089 10.5 9.625V0.875C10.5 0.392 10.1089 0 9.625 0H0.875C0.391125 0 0 0.392 0 0.875V9.625C0 10.1089 0.391125 10.5 0.875 10.5Z" fill="#FFFFFF"/>
<path d="M3.5 13.125C3.5 13.6082 3.89175 14 4.375 14H13.125C13.6089 14 14 13.6089 14 13.125V4.375C14 3.89175 13.6082 3.5 13.125 3.5C12.6418 3.5 12.25 3.89175 12.25 4.375V12.25H4.375C3.89175 12.25 3.5 12.6418 3.5 13.125Z" fill="#FFFFFF"/>
</svg>
