<svg width="10" height="10" viewBox="0 0 10 10" fill="none" xmlns="http://www.w3.org/2000/svg">
<path fill-rule="evenodd" clip-rule="evenodd" d="M6.50195 0C6.87695 0 7.12695 0.25 7.12695 0.625C7.12695 1 7.12695 1.5 7.12695 1.5H9.50195C9.7781 1.5 10.002 1.72386 10.002 2C10.002 2.27614 9.7781 2.5 9.50195 2.5H0.501953C0.225811 2.5 0.00195312 2.27614 0.00195312 2C0.00195312 1.72386 0.225811 1.5 0.501953 1.5H3.00195C3.00195 1.5 3.00195 1 3.00195 0.625C3.00195 0.25 3.25195 0 3.62695 0C4.00195 0 6.12695 0 6.50195 0Z" fill="#FFFFFF"/>
<path d="M1.50195 8.75V3H8.50195V8.75C8.50195 9.4375 7.81445 10 7.12695 10H3.00195C2.31445 10 1.50195 9.4375 1.50195 8.75Z" fill="#FFFFFF"/>
</svg>
