<svg width="121" height="121" viewBox="0 0 121 121" fill="none" xmlns="http://www.w3.org/2000/svg">
<path d="M113.424 60.4574L110.033 61.1225L110.033 61.1226C85.2984 65.9779 65.9443 85.2943 61.1225 110.033C61.1224 110.033 61.1223 110.034 61.1222 110.035L60.4491 113.466L59.5644 109.258L59.5641 109.256C54.4967 85.2565 35.7409 66.5379 11.7459 61.4363L11.7425 61.4356L7.33144 60.5084L11.7048 59.5994L11.7072 59.5989C36.0554 54.4971 54.9863 35.3906 59.8422 10.9718C59.8422 10.9715 59.8423 10.9713 59.8423 10.971L60.5 7.67214L61.1577 10.9714C61.1578 10.9715 61.1578 10.9717 61.1578 10.9718C66.0135 35.3554 84.9437 54.4969 109.293 59.5989L109.295 59.5994L113.424 60.4574Z" fill="#E8EBF5" stroke="#627486" stroke-width="5"/>
</svg>
