<svg width="16" height="16" viewBox="0 0 16 16" fill="none" xmlns="http://www.w3.org/2000/svg">
<g clip-path="url(#clip0_8806_2865)">
<path fill-rule="evenodd" clip-rule="evenodd" d="M14.4 8C14.4 11.5346 11.5346 14.4 8 14.4C4.46538 14.4 1.6 11.5346 1.6 8C1.6 4.46538 4.46538 1.6 8 1.6C11.5346 1.6 14.4 4.46538 14.4 8ZM16 8C16 12.4183 12.4183 16 8 16C3.58172 16 0 12.4183 0 8C0 3.58172 3.58172 0 8 0C12.4183 0 16 3.58172 16 8ZM6.83831 9.98485V10.1464H8.63905V9.98485C8.64855 9.05835 8.98114 8.62598 9.73185 8.17461C10.6203 7.64722 11.2 6.94877 11.2 5.83222C11.2 4.16926 9.86013 3.2 7.97387 3.2C6.24915 3.2 4.84276 4.10275 4.8 6.00327H6.73853C6.76704 5.22881 7.34195 4.81544 7.96437 4.81544C8.60579 4.81544 9.12368 5.24306 9.12368 5.90349C9.12368 6.52591 8.67231 6.93927 8.0879 7.30987C7.28968 7.81351 6.84306 8.3219 6.83831 9.98485ZM6.634 12.0469C6.62925 12.6788 7.14714 13.1872 7.77431 13.1872C8.38248 13.1872 8.90987 12.6788 8.91463 12.0469C8.90987 11.4245 8.38248 10.9161 7.77431 10.9161C7.14714 10.9161 6.62925 11.4245 6.634 12.0469Z" fill="#000000"/>
</g>
<defs>
<clipPath id="clip0_8806_2865">
<rect width="16" height="16" fill="white"/>
</clipPath>
</defs>
</svg>
