<svg width="16" height="16" viewBox="0 0 16 16" fill="none" xmlns="http://www.w3.org/2000/svg">
<path d="M12.9018 1H2.42821C1.62484 1 1 1.6546 1 2.42821V12.9018C1 13.7052 1.62484 14.33 2.42821 14.33H12.9018C13.6754 14.33 14.33 13.7052 14.33 12.9018V2.42821C14.33 1.6546 13.6754 1 12.9018 1ZM12.7233 12.9018H2.60674C2.48772 12.9018 2.42821 12.8423 2.42821 12.7233V2.60674C2.42821 2.51748 2.48772 2.42821 2.60674 2.42821H12.7233C12.8125 2.42821 12.9018 2.51748 12.9018 2.60674V12.7233C12.9018 12.8423 12.8125 12.9018 12.7233 12.9018ZM11.1165 3.85643H7.06991C6.74261 3.85643 6.56408 4.24324 6.80212 4.48127L8.23033 5.90949L3.94569 10.1941C3.79692 10.3429 3.79692 10.5809 3.94569 10.7L4.63004 11.3843C4.74906 11.5331 4.9871 11.5331 5.13587 11.3843L9.42051 7.09967L10.8487 8.52788C11.0868 8.73616 11.4736 8.58739 11.4736 8.26009V4.21348C11.4736 4.03496 11.295 3.85643 11.1165 3.85643Z" fill="#33768E"/>
</svg>
