<svg width="24" height="24" viewBox="0 0 24 24" fill="none" xmlns="http://www.w3.org/2000/svg">
<path d="M21.4442 12.4186L17.3681 16.4947C15.33 18.5691 11.9818 18.5691 9.94376 16.4947C8.12407 14.675 7.86931 11.8363 9.36146 9.72546L9.39785 9.68907C9.79818 9.14316 10.5261 9.03398 11.0356 9.39792C11.5451 9.76186 11.6907 10.4897 11.2903 11.0356L11.2539 11.072C10.4169 12.2366 10.5624 13.838 11.5815 14.857C12.7097 16.0216 14.5658 16.0216 15.7304 14.857L19.8065 10.7809C20.9711 9.61628 20.9711 7.7602 19.8065 6.632C18.7874 5.61297 17.1861 5.4674 16.0215 6.30445L15.9851 6.34085C15.4392 6.74118 14.7113 6.5956 14.3474 6.08609C13.9835 5.57658 14.0926 4.84871 14.6022 4.44837L14.6749 4.41198C16.7858 2.91984 19.6245 3.17459 21.4442 4.99428C23.5186 7.03233 23.5186 10.3805 21.4442 12.4186ZM2.55583 11.5815L6.63193 7.46905C8.70637 5.431 12.0182 5.431 14.0926 7.46905C15.9123 9.28874 16.1307 12.1638 14.6385 14.2747L14.6022 14.3111C14.2382 14.857 13.4739 14.9662 12.9644 14.6022C12.4549 14.2383 12.3093 13.5104 12.7097 12.9645L12.7461 12.9281C13.5831 11.7271 13.4376 10.1622 12.4185 9.14316C11.2903 7.97856 9.43424 7.97856 8.26964 9.14316L4.19355 13.2193C3.06534 14.3475 3.06534 16.2035 4.19355 17.3681C5.21257 18.3872 6.8139 18.5327 7.97849 17.6957L8.01489 17.6593C8.56079 17.259 9.28867 17.4045 9.65261 17.914C10.0165 18.4236 9.90736 19.1514 9.39785 19.5518L9.32506 19.5882C7.25062 21.0803 4.37552 20.8255 2.55583 19.0059C0.48139 16.9678 0.48139 13.6196 2.55583 11.5815Z" fill="#33768E"/>
</svg>
