<svg width="28" height="29" viewBox="0 0 28 29" fill="none" xmlns="http://www.w3.org/2000/svg">
<rect x="0.5" y="0.984375" width="27" height="27" rx="3.5" fill="white"/>
<rect x="0.5" y="0.984375" width="27" height="27" rx="3.5" stroke="#C3D8E0"/>
<path d="M11.3536 9.64832L12.8525 11.1471C13.0554 11.3345 13.0554 11.6624 12.8525 11.8497C12.6651 12.0527 12.3372 12.0527 12.1499 11.8497L11.5098 11.2096V17.8245C11.5098 18.1056 11.7283 18.3242 12.0094 18.3242H13.758C14.0234 18.3242 14.2576 18.5583 14.2576 18.8238C14.2576 19.1048 14.0234 19.3234 13.758 19.3234H12.0094C11.1819 19.3234 10.5105 18.652 10.5105 17.8245V11.2096L9.8548 11.8497C9.66745 12.0527 9.33958 12.0527 9.15222 11.8497C8.94926 11.6624 8.94926 11.3345 9.15222 11.1471L10.6511 9.64832C10.8384 9.44535 11.1663 9.44535 11.3536 9.64832ZM14.2576 9.9918H16.0062C16.8337 9.9918 17.5051 10.6632 17.5051 11.4906V17.7621L18.1452 17.122C18.3326 16.919 18.6604 16.919 18.8478 17.122C19.0507 17.3093 19.0507 17.6372 18.8478 17.8245L17.3489 19.3234C17.1616 19.5263 16.8337 19.5263 16.6464 19.3234L15.1475 17.8245C14.9446 17.6372 14.9446 17.3093 15.1475 17.122C15.3349 16.919 15.6628 16.919 15.8501 17.122L16.5059 17.7621V11.4906C16.5059 11.2252 16.2717 10.991 16.0062 10.991H14.2576C13.9766 10.991 13.758 10.7724 13.758 10.4914C13.758 10.226 13.9766 9.9918 14.2576 9.9918Z" fill="#33768E"/>
</svg>
