<svg width="80" height="80" viewBox="0 0 80 80" fill="none" xmlns="http://www.w3.org/2000/svg">
<g clip-path="url(#clip0_1010_25591)">
<path d="M80 47.5C80 42.8281 77.4375 38.75 73.6406 36.6094C74.5156 35.0156 75 33.1875 75 31.25C75 26.1719 71.6562 21.8906 67.0469 20.4844C67.3438 19.5469 67.5 18.5469 67.5 17.5C67.5 12.2969 63.5312 8.01562 58.4531 7.54688C57.3438 3.20312 53.4219 0 48.75 0C44.9844 0 41.7031 2.07812 40 5.15625C38.2969 2.07812 35.0156 0 31.25 0C26.5781 0 22.6562 3.20312 21.5469 7.54688C16.4688 8.01562 12.5 12.2969 12.5 17.5C12.5 18.5469 12.6562 19.5469 12.9531 20.4844C8.34375 21.9063 5 26.1875 5 31.25C5 33.1875 5.48438 35.0156 6.35938 36.6094C2.5625 38.75 0 42.8281 0 47.5C0 52.7031 3.1875 57.1719 7.71875 59.0469C7.57813 59.7656 7.5 60.5 7.5 61.25C7.5 67.4688 12.5312 72.5 18.75 72.5C19.3281 72.5 19.8906 72.4531 20.4375 72.375C21.7188 76.7812 25.7969 80 30.625 80C34.6875 80 38.2031 77.7188 40 74.375C41.7969 77.7188 45.3125 80 49.375 80C54.2031 80 58.2813 76.7812 59.5625 72.375C60.125 72.4531 60.6719 72.5 61.25 72.5C67.4688 72.5 72.5 67.4688 72.5 61.25C72.5 60.5 72.4219 59.7656 72.2812 59.0469C76.8125 57.1719 80 52.7031 80 47.5ZM38.75 42.5V69.7812C38.75 69.8281 38.7344 69.875 38.7344 69.9219C38.4531 74.1562 34.9375 77.5 30.625 77.5C26.5938 77.5 23.2344 74.5625 22.6094 70.7031C22.5469 70.3594 22.3438 70.0469 22.0469 69.8594C21.75 69.6719 21.3906 69.6094 21.0469 69.7031C20.3125 69.8906 19.5469 70 18.75 70C13.9219 70 10 66.0781 10 61.25C10 60.3438 10.1406 59.4531 10.4062 58.625C10.5 58.3125 10.4688 57.9688 10.3125 57.6719C10.1562 57.375 9.89062 57.1563 9.57812 57.0625C5.46875 55.8125 2.5 52 2.5 47.5C2.5 43.3438 5.03125 39.7812 8.64062 38.2812C8.98438 38.1406 9.25 37.8438 9.35938 37.4688C9.46875 37.0938 9.39062 36.7031 9.17188 36.3906C8.125 34.9375 7.5 33.1719 7.5 31.25C7.5 26.8906 10.6875 23.2812 14.8594 22.6094C15.25 22.5469 15.5781 22.2969 15.7656 21.9531C15.9531 21.6094 15.9531 21.1875 15.7812 20.8281C15.2812 19.8281 15 18.7031 15 17.5C15 13.3594 18.3594 10 22.5 10H22.5781C23.2031 10 23.7344 9.54688 23.8281 8.92188C24.3438 5.29687 27.4688 2.5 31.25 2.5C35.3906 2.5 38.75 5.85938 38.75 10V42.5ZM70.4375 57.0781C70.125 57.1719 69.8594 57.3906 69.7031 57.6875C69.5469 57.9844 69.5156 58.3281 69.6094 58.6406C69.8594 59.4531 70 60.3438 70 61.25C70 66.0781 66.0781 70 61.25 70C60.4531 70 59.6875 69.9062 58.9531 69.7031C58.6094 69.6094 58.25 69.6719 57.9531 69.8594C57.6562 70.0469 57.4531 70.3594 57.3906 70.7031C56.7656 74.5625 53.4062 77.5 49.375 77.5C45.0625 77.5 41.5469 74.1562 41.2656 69.9219C41.2656 69.875 41.2656 69.8281 41.25 69.7812V10C41.25 5.85938 44.6094 2.5 48.75 2.5C52.5312 2.5 55.6562 5.29687 56.1875 8.92188C56.2812 9.54688 56.8125 10 57.4375 10H57.5156C61.6562 10 65.0156 13.3594 65.0156 17.5C65.0156 18.7031 64.7344 19.8281 64.2344 20.8281C64.0625 21.1875 64.0781 21.6094 64.25 21.9531C64.4219 22.2969 64.7656 22.5469 65.1562 22.6094C69.3125 23.2812 72.5 26.8906 72.5 31.25C72.5 33.1719 71.875 34.9375 70.8438 36.3906C70.625 36.7031 70.5625 37.1094 70.6562 37.4688C70.75 37.8281 71.0156 38.1406 71.375 38.2812C74.9844 39.7969 77.5156 43.3594 77.5156 47.5156C77.5156 52.0156 74.5312 55.8281 70.4375 57.0781Z" fill="#8247BD"/>
<path d="M32.3438 21.25C31.7812 19.0938 29.8281 17.5 27.5 17.5C24.7344 17.5 22.5 19.7344 22.5 22.5C22.5 25.2656 24.7344 27.5 27.5 27.5C29.8281 27.5 31.7812 25.9062 32.3438 23.75H38.75V21.25H32.3438ZM27.5 25C26.1188 25 25 23.8812 25 22.5C25 21.1188 26.1188 20 27.5 20C28.8812 20 30 21.1188 30 22.5C30 23.8812 28.8812 25 27.5 25Z" fill="#402CA5"/>
<path d="M30 42.5C26.5469 42.5 23.75 45.2969 23.75 48.75V50.1562C21.5938 50.7188 20 52.6719 20 55C20 57.7656 22.2344 60 25 60C27.7656 60 30 57.7656 30 55C30 52.6719 28.4062 50.7188 26.25 50.1562V48.75C26.25 46.6719 27.9219 45 30 45H38.75V42.5H30ZM27.5 55C27.5 56.3813 26.3812 57.5 25 57.5C23.6188 57.5 22.5 56.3813 22.5 55C22.5 53.6187 23.6188 52.5 25 52.5C26.3812 52.5 27.5 53.6187 27.5 55Z" fill="#A73269"/>
<path d="M56.25 36.9062V34.25C56.25 30.7969 53.4531 28 50 28H41.25V30.5H50C52.0781 30.5 53.75 32.1719 53.75 34.25V36.9062C51.5938 37.4688 50 39.4219 50 41.75C50 44.5156 52.2344 46.75 55 46.75C57.7656 46.75 60 44.5156 60 41.75C60 39.4219 58.4062 37.4688 56.25 36.9062ZM55 44.25C53.6188 44.25 52.5 43.1313 52.5 41.75C52.5 40.3688 53.6188 39.25 55 39.25C56.3813 39.25 57.5 40.3688 57.5 41.75C57.5 43.1313 56.3813 44.25 55 44.25Z" fill="#5795A6"/>
<path d="M57.5 52.5C55.1719 52.5 53.2188 54.0938 52.6562 56.25H41.25V58.75H52.6562C53.2188 60.9062 55.1719 62.5 57.5 62.5C60.2656 62.5 62.5 60.2656 62.5 57.5C62.5 54.7344 60.2656 52.5 57.5 52.5ZM57.5 60C56.1187 60 55 58.8812 55 57.5C55 56.1188 56.1187 55 57.5 55C58.8813 55 60 56.1188 60 57.5C60 58.8812 58.8813 60 57.5 60Z" fill="#1C75BC"/>
</g>
<defs>
<clipPath id="clip0_1010_25591">
<rect width="80" height="80" fill="white"/>
</clipPath>
</defs>
</svg>
