<svg width="16" height="16" viewBox="0 0 16 16" fill="none" xmlns="http://www.w3.org/2000/svg">
<path d="M14.4838 10.6829C14.7279 10.927 14.7279 11.3227 14.4838 11.5667L12.4004 13.6497C12.0095 14.0405 11.3335 13.7666 11.3335 13.2077V12.1665H9.80262C9.75977 12.1665 9.71738 12.1577 9.67808 12.1406C9.63878 12.1235 9.6034 12.0985 9.57416 12.0672L7.73677 10.0986L9.12565 8.61048L10.5001 10.0832H11.3335V9.04199C11.3335 8.48371 12.0091 8.20871 12.4004 8.60004L14.4838 10.6829ZM1.646 5.9165H3.83349L5.208 7.38918L6.59687 5.90108L4.75948 3.93244C4.73024 3.90111 4.69487 3.87613 4.65557 3.85905C4.61627 3.84197 4.57387 3.83316 4.53102 3.83317H1.646C1.47342 3.83317 1.3335 3.97309 1.3335 4.14567V5.604C1.3335 5.77658 1.47342 5.9165 1.646 5.9165ZM11.3335 5.9165V6.95775C11.3335 7.5166 12.0095 7.79056 12.4004 7.3997L14.4838 5.31678C14.7279 5.0727 14.7279 4.67697 14.4838 4.43291L12.4004 2.35007C12.0091 1.95872 11.3335 2.23374 11.3335 2.792V3.83317H9.80262C9.75977 3.83317 9.71738 3.84199 9.67808 3.85906C9.63878 3.87614 9.6034 3.90112 9.57416 3.93244L3.83349 10.0832H1.646C1.47342 10.0832 1.3335 10.2231 1.3335 10.3957V11.854C1.3335 12.0266 1.47342 12.1665 1.646 12.1665H4.53102C4.61763 12.1665 4.70037 12.1305 4.75948 12.0672L10.5001 5.9165H11.3335Z" fill="#404D5B"/>
</svg>
