<svg width="24" height="24" viewBox="0 0 24 24" fill="none" xmlns="http://www.w3.org/2000/svg">
<path d="M19 11.9754C19 12.1601 18.9222 12.3333 18.7855 12.4572L16.3793 14.6461C16.252 14.7836 16.0961 14.841 15.9375 14.841C15.5746 14.841 15.2812 14.5468 15.2812 14.1848C15.2812 14.0061 15.3536 13.8282 15.4957 13.6986L16.6461 12.6519H12.6562V16.6441L13.7021 15.4929C13.8311 15.3507 14.0087 15.2783 14.1872 15.2783C14.549 15.2783 14.8438 15.5711 14.8438 15.9353C14.8438 16.093 14.7874 16.2512 14.6729 16.3769L12.4854 18.7848C12.3609 18.9234 12.1859 19 12 19C11.8141 19 11.6385 18.9222 11.5146 18.7854L9.32715 16.3775C9.21261 16.2516 9.15625 16.0934 9.15625 15.9359C9.15625 15.57 9.45238 15.2788 9.78789 15.2788C9.96634 15.2788 10.1439 15.3513 10.2732 15.4934L11.3438 16.6457V12.6508H7.35402L8.50438 13.6975C8.64645 13.827 8.71886 14.0048 8.71886 14.1837C8.71886 14.5452 8.42601 14.8399 8.06261 14.8399C7.90454 14.8399 7.74734 14.7835 7.62073 14.6689L5.21448 12.48C5.07777 12.3582 5 12.1832 5 11.9754C5 11.7907 5.07777 11.6098 5.21448 11.4859L7.62073 9.29707C7.74805 9.20547 7.90391 9.15078 8.0625 9.15078C8.42508 9.15078 8.71848 9.44445 8.71848 9.80676C8.71848 9.98542 8.6461 10.1633 8.50399 10.2929L7.35402 11.3383H11.3438V7.34609L10.2992 8.49727C10.168 8.63945 9.99023 8.71055 9.78789 8.71055C9.42805 8.71055 9.15625 8.41906 9.15625 8.05348C9.15625 7.89584 9.21261 7.73766 9.32715 7.61188L11.5146 5.20398C11.6391 5.06841 11.8195 5 12 5C12.1805 5 12.3615 5.06841 12.4854 5.20521L14.6729 7.61311C14.7874 7.73897 14.8438 7.89721 14.8438 8.05471C14.8438 8.41975 14.5482 8.71178 14.1875 8.71178C14.0089 8.71178 13.8312 8.6391 13.7021 8.49716L12.6562 7.34609V11.3383H16.6457L15.4954 10.2916C15.3533 10.1621 15.2809 9.98422 15.2809 9.80539C15.2809 9.44309 15.5745 9.14941 15.9366 9.14941C16.094 9.14941 16.2524 9.20577 16.379 9.32009L18.7852 11.509C18.9234 11.6336 19 11.8141 19 11.9754Z" fill="#404D5B"/>
</svg>
