<svg width="16" height="16" viewBox="0 0 16 16" fill="none" xmlns="http://www.w3.org/2000/svg">
<path d="M7.14447 13.3221L5.87373 12.9534C5.74041 12.9159 5.66542 12.7763 5.70291 12.643L8.54644 2.84794C8.58394 2.71462 8.72351 2.63962 8.85683 2.67712L10.1276 3.04584C10.2609 3.08334 10.3359 3.22291 10.2984 3.35624L7.45486 13.1513C7.41528 13.2846 7.27779 13.3617 7.14447 13.3221ZM4.76965 10.9848L5.67583 10.0182C5.77166 9.91614 5.76541 9.75365 5.65917 9.65991L3.77182 7.99962L5.65917 6.33934C5.76541 6.24559 5.77374 6.08311 5.67583 5.98103L4.76965 5.01444C4.67591 4.91445 4.51759 4.9082 4.41551 5.00402L1.41367 7.8163C1.30742 7.91421 1.30742 8.08295 1.41367 8.18086L4.41551 10.9952C4.51759 11.091 4.67591 11.0869 4.76965 10.9848ZM11.5858 10.9973L14.5876 8.18294C14.6939 8.08503 14.6939 7.9163 14.5876 7.81839L11.5858 5.00194C11.4858 4.9082 11.3275 4.91236 11.2316 5.01236L10.3255 5.97895C10.2296 6.08102 10.2359 6.24351 10.3421 6.33725L12.2295 7.99962L10.3421 9.65991C10.2359 9.75365 10.2276 9.91614 10.3255 10.0182L11.2316 10.9848C11.3254 11.0869 11.4837 11.091 11.5858 10.9973Z" fill="#404D5B"/>
</svg>
