<svg width="16" height="16" viewBox="0 0 16 16" fill="none" xmlns="http://www.w3.org/2000/svg">
<path d="M10.3802 5.41952C9.99039 3.01898 9.07103 1.3335 8.00114 1.3335C6.93125 1.3335 6.01189 3.01898 5.62211 5.41952H10.3802ZM5.42049 8.00016C5.42049 8.59694 5.45275 9.16952 5.5092 9.72059H10.4904C10.5468 9.16952 10.5791 8.59694 10.5791 8.00016C10.5791 7.40339 10.5468 6.83081 10.4904 6.27973H5.5092C5.45275 6.83081 5.42049 7.40339 5.42049 8.00016ZM14.149 5.41952C13.3802 3.59425 11.8237 2.18296 9.90168 1.61307C10.5576 2.52167 11.0092 3.88995 11.2458 5.41952H14.149ZM6.09791 1.61307C4.17856 2.18296 2.61942 3.59425 1.85329 5.41952H4.75652C4.99039 3.88995 5.442 2.52167 6.09791 1.61307ZM14.4366 6.27973H11.3533C11.4097 6.84425 11.442 7.42221 11.442 8.00016C11.442 8.57812 11.4097 9.15608 11.3533 9.72059H14.4339C14.5818 9.16952 14.6651 8.59694 14.6651 8.00016C14.6651 7.40339 14.5818 6.83081 14.4366 6.27973ZM4.56028 8.00016C4.56028 7.42221 4.59254 6.84425 4.64899 6.27973H1.56566C1.42049 6.83081 1.33447 7.40339 1.33447 8.00016C1.33447 8.59694 1.42049 9.16952 1.56566 9.72059H4.6463C4.59254 9.15608 4.56028 8.57812 4.56028 8.00016ZM5.62211 10.5808C6.01189 12.9813 6.93125 14.6668 8.00114 14.6668C9.07103 14.6668 9.99039 12.9813 10.3802 10.5808H5.62211ZM9.90436 14.3873C11.8237 13.8174 13.3829 12.4061 14.1517 10.5808H11.2485C11.0119 12.1104 10.5603 13.4787 9.90436 14.3873ZM1.85329 10.5808C2.62211 12.4061 4.17856 13.8174 6.1006 14.3873C5.44469 13.4787 4.99307 12.1104 4.75652 10.5808H1.85329Z" fill="#33768E
"/>
</svg>
