<svg width="16" height="16" viewBox="0 0 16 16" fill="none" xmlns="http://www.w3.org/2000/svg">
<path d="M6.23197 6.82103L5.05332 7.99967L6.23171 9.17806L7.41035 7.99967L6.23197 6.82103ZM9.17806 6.23197L7.99967 5.05332L6.82129 6.23171L7.99967 7.41035L9.17806 6.23197ZM6.82129 9.76738L7.99967 10.946L9.17832 9.76738L7.99967 8.589L6.82129 9.76738ZM7.99967 1.33301C4.3179 1.33301 1.33301 4.3179 1.33301 7.99967C1.33301 11.6814 4.3179 14.6663 7.99967 14.6663C11.6814 14.6663 14.6663 11.6814 14.6663 7.99967C14.6663 4.3179 11.6814 1.33301 7.99967 1.33301ZM12.8611 9.03092L12.5666 9.32546C12.4854 9.40671 12.3533 9.40671 12.2721 9.32546L11.5354 8.58874L10.357 9.76712L11.2408 10.651L11.6827 10.2091C11.764 10.1278 11.896 10.1278 11.9773 10.2091L12.2718 10.5036C12.3531 10.5848 12.3531 10.7169 12.2718 10.7981L11.8299 11.24L12.2718 11.682C12.3531 11.7632 12.3531 11.8952 12.2718 11.9765L11.9773 12.271C11.896 12.3523 11.764 12.3523 11.6827 12.271L11.2408 11.8291L10.7989 12.271C10.7176 12.3523 10.5856 12.3523 10.5044 12.271L10.2098 11.9765C10.1286 11.8952 10.1286 11.7632 10.2098 11.682L10.6518 11.24L9.7679 10.3562L8.58926 11.5348L9.32598 12.2716C9.40723 12.3528 9.40723 12.4848 9.32598 12.5661L9.03145 12.8606C8.9502 12.9419 8.81816 12.9419 8.73691 12.8606L7.99967 12.1244L7.26296 12.8611C7.18171 12.9424 7.04967 12.9424 6.96842 12.8611L6.67389 12.5666C6.59264 12.4854 6.59264 12.3533 6.67389 12.2721L7.41061 11.5354L6.23223 10.3567L5.34837 11.2406L5.7903 11.6825C5.87155 11.7637 5.87155 11.8958 5.7903 11.977L5.49577 12.2716C5.41452 12.3528 5.28249 12.3528 5.20124 12.2716L4.75931 11.8296L4.31738 12.2716C4.23613 12.3528 4.1041 12.3528 4.02285 12.2716L3.72832 11.977C3.64707 11.8958 3.64707 11.7637 3.72832 11.6825L4.17025 11.2406L3.72832 10.7986C3.64707 10.7174 3.64707 10.5854 3.72832 10.5041L4.02285 10.2096C4.1041 10.1283 4.23613 10.1283 4.31738 10.2096L4.75931 10.6515L5.64316 9.76764L4.46478 8.58926L3.72806 9.32598C3.64681 9.40723 3.51478 9.40723 3.43353 9.32598L3.13822 9.03092C3.05697 8.94968 3.05697 8.81764 3.13822 8.73639L3.87494 7.99967L3.13822 7.26296C3.05697 7.18171 3.05697 7.04967 3.13822 6.96842L3.43275 6.67389C3.514 6.59264 3.64603 6.59264 3.72728 6.67389L4.464 7.41061L5.64238 6.23197L4.75853 5.34811L4.3166 5.79004C4.23535 5.87129 4.10332 5.87129 4.02207 5.79004L3.72754 5.49551C3.64629 5.41426 3.64629 5.28223 3.72754 5.20098L4.16947 4.75905L3.72754 4.31712C3.64629 4.23587 3.64629 4.10384 3.72754 4.02259L4.02207 3.72806C4.10332 3.64681 4.23535 3.64681 4.3166 3.72806L4.75853 4.16999L5.20046 3.72806C5.28171 3.64681 5.41374 3.64681 5.49499 3.72806L5.78952 4.02259C5.87077 4.10384 5.87077 4.23587 5.78952 4.31712L5.34759 4.75905L6.23145 5.6429L7.41009 4.46452L6.67337 3.7278C6.59212 3.64655 6.59212 3.51452 6.67337 3.43327L6.9679 3.13874C7.04915 3.05749 7.18119 3.05749 7.26244 3.13874L7.99967 3.87494L8.73639 3.13822C8.81764 3.05697 8.94968 3.05697 9.03092 3.13822L9.32546 3.43275C9.40671 3.514 9.40671 3.64603 9.32546 3.72728L8.58874 4.464L9.76738 5.64238L10.6512 4.75853L10.2093 4.3166C10.1281 4.23535 10.1281 4.10332 10.2093 4.02207L10.5038 3.72754C10.5851 3.64629 10.7171 3.64629 10.7984 3.72754L11.2403 4.16947L11.6822 3.72754C11.7635 3.64629 11.8955 3.64629 11.9768 3.72754L12.2713 4.02207C12.3525 4.10332 12.3525 4.23535 12.2713 4.3166L11.8294 4.75853L12.2713 5.20046C12.3525 5.28171 12.3525 5.41374 12.2713 5.49499L11.9768 5.78952C11.8955 5.87077 11.7635 5.87077 11.6822 5.78952L11.2403 5.34759L10.3564 6.23145L11.5348 7.41009L12.2716 6.67337C12.3528 6.59212 12.4848 6.59212 12.5661 6.67337L12.8606 6.9679C12.9419 7.04915 12.9419 7.18119 12.8606 7.26244L12.1244 7.99967L12.8611 8.73613C12.9002 8.77526 12.9221 8.82827 12.9221 8.88353C12.9221 8.93879 12.9002 8.9918 12.8611 9.03092ZM8.589 7.99967L9.76764 9.17806L10.946 7.99967L9.76764 6.82103L8.589 7.99967Z" fill="#404D5B"/>
</svg>
