<svg width="16" height="16" viewBox="0 0 16 16" fill="none" xmlns="http://www.w3.org/2000/svg">
<g clip-path="url(#clip0_4894_724)">
<path d="M14.4824 3.51275L9.48194 1.42921C9.32962 1.36602 9.16633 1.3335 9.00142 1.3335C8.83652 1.3335 8.67323 1.36602 8.52091 1.42921L3.52042 3.51275C3.05423 3.70547 2.74951 4.16125 2.74951 4.66651C2.74951 9.83628 5.73157 13.4095 8.5183 14.5711C8.82563 14.6987 9.17201 14.6987 9.47933 14.5711C11.7113 13.6413 15.2507 10.4301 15.2507 4.66651C15.2507 4.16125 14.946 3.70547 14.4824 3.51275ZM9.00273 12.9564L9.00012 3.03353L13.5813 4.94257C13.4954 8.88567 11.4431 11.7427 9.00273 12.9564Z" fill="#404D5B"/>
</g>
<defs>
<clipPath id="clip0_4894_724">
<rect width="14" height="16" fill="white" transform="translate(1)"/>
</clipPath>
</defs>
</svg>
