<svg width="228" height="228" viewBox="0 0 228 228" fill="none" xmlns="http://www.w3.org/2000/svg">
<g clip-path="url(#clip0_1689_30651)">
<path d="M114 228C176.96 228 228 176.96 228 114C228 51.0395 176.96 0 114 0C51.0395 0 0 51.0395 0 114C0 176.96 51.0395 228 114 228Z" fill="#8793A1"/>
<path d="M134.342 125.721V57H162.094V125.721C162.094 125.721 162.094 171 113.466 171C64.8375 171 65.9063 125.721 65.9063 125.721V57H93.6581V125.721C93.6581 125.721 93.4444 145.813 114 145.813C134.556 145.813 134.342 125.721 134.342 125.721Z" fill="#F4F9FA"/>
</g>
<defs>
<clipPath id="clip0_1689_30651">
<rect width="228" height="228" fill="white"/>
</clipPath>
</defs>
</svg>
