<svg width="16" height="16" viewBox="0 0 16 16" fill="none" xmlns="http://www.w3.org/2000/svg">
<path d="M11.084 4.70099C10.2437 3.91411 9.15307 3.48277 7.99608 3.48379C5.91387 3.48562 4.11629 4.91331 3.61997 6.89374C3.58385 7.0379 3.4554 7.1397 3.30678 7.1397H1.76637C1.56481 7.1397 1.4117 6.95672 1.44898 6.75863C2.03062 3.66992 4.74245 1.33325 8.00016 1.33325C9.7864 1.33325 11.4085 2.03583 12.6054 3.17962L13.5655 2.21954C13.9719 1.81312 14.6668 2.10097 14.6668 2.67575V6.27949C14.6668 6.63581 14.378 6.92465 14.0217 6.92465H10.4179C9.84315 6.92465 9.5553 6.22973 9.96172 5.82328L11.084 4.70099ZM1.97866 9.07519H5.58239C6.15718 9.07519 6.44503 9.77011 6.0386 10.1766L4.91629 11.2989C5.75667 12.0858 6.84734 12.5171 8.00436 12.5161C10.0855 12.5142 11.8838 11.0875 12.3804 9.10616C12.4165 8.96199 12.5449 8.86019 12.6936 8.86019H14.234C14.4355 8.86019 14.5887 9.04317 14.5514 9.24126C13.9697 12.3299 11.2579 14.6666 8.00016 14.6666C6.21393 14.6666 4.5918 13.964 3.39492 12.8202L2.43484 13.7803C2.02842 14.1867 1.3335 13.8989 1.3335 13.3241V9.72035C1.3335 9.36403 1.62234 9.07519 1.97866 9.07519Z" fill="#404D5B"/>
</svg>
