<?xml version="1.0" standalone="no"?>
<!DOCTYPE svg PUBLIC "-//W3C//DTD SVG 20010904//EN"
 "http://www.w3.org/TR/2001/REC-SVG-20010904/DTD/svg10.dtd">
<svg version="1.0" xmlns="http://www.w3.org/2000/svg"
 width="88.000000pt" height="88.000000pt" viewBox="0 0 88.000000 88.000000"
 preserveAspectRatio="xMidYMid meet">

<g transform="translate(0.000000,88.000000) scale(0.100000,-0.100000)"
fill="#000000" stroke="none">
<path d="M625 747 c-10 -8 -15 -19 -11 -26 10 -15 -20 -61 -39 -61 -8 0 -15
-9 -15 -20 0 -11 4 -20 10 -20 16 0 51 -44 46 -57 -8 -21 5 -43 25 -43 10 0
19 5 19 10 0 6 14 10 30 10 17 0 30 -4 30 -10 0 -5 9 -10 19 -10 20 0 33 22
25 43 -5 13 30 57 46 57 6 0 10 9 10 20 0 11 -6 20 -14 20 -19 0 -47 45 -40
64 7 17 -31 42 -41 26 -8 -13 -58 -13 -71 0 -7 7 -16 6 -29 -3z m101 -81 c21
-21 17 -44 -11 -62 -23 -15 -27 -15 -50 0 -14 9 -25 23 -25 32 0 39 57 59 86
30z"/>
<path d="M217 702 c-10 -10 -17 -28 -17 -39 0 -26 -21 -35 -69 -27 -35 6 -39
3 -62 -33 -49 -76 -51 -88 -18 -117 36 -32 37 -58 3 -76 -22 -12 -25 -18 -19
-49 6 -34 38 -88 59 -103 5 -4 32 -4 58 -1 48 6 48 6 48 -24 0 -17 7 -36 15
-43 17 -14 143 -16 155 -3 5 4 10 22 12 38 3 29 5 30 54 31 60 0 75 12 104 79
l20 46 -25 23 c-32 30 -32 49 2 82 22 22 24 29 15 45 -7 10 -12 26 -12 34 0 8
-3 15 -7 15 -5 0 -16 14 -26 31 -16 29 -21 31 -56 25 -53 -8 -71 0 -71 35 0
36 -24 49 -93 49 -40 0 -58 -5 -70 -18z m111 -34 c7 -7 12 -20 12 -30 0 -29
59 -60 98 -53 26 5 37 2 48 -12 20 -27 17 -61 -6 -68 -16 -5 -20 -15 -20 -53
0 -36 5 -51 20 -62 23 -17 25 -29 8 -65 -11 -24 -48 -36 -48 -15 0 6 -9 10
-20 10 -11 0 -20 -3 -20 -8 0 -4 -13 -13 -30 -20 -24 -11 -30 -20 -30 -43 0
-29 -1 -30 -42 -27 -34 2 -44 7 -46 23 -8 42 -112 102 -112 65 0 -21 -36 -8
-47 17 -17 37 -16 46 7 61 29 18 29 101 0 122 -25 18 -25 31 0 58 15 16 28 20
46 16 37 -10 92 23 105 63 8 27 16 33 38 33 15 0 32 -5 39 -12z"/>
<path d="M265 543 c-32 -8 -64 -43 -71 -79 -8 -43 12 -83 54 -107 92 -54 188
74 115 152 -29 30 -63 42 -98 34z m63 -55 c7 -7 12 -29 12 -49 0 -32 -3 -37
-27 -42 -46 -9 -73 8 -73 46 0 40 15 57 50 57 14 0 31 -5 38 -12z"/>
<path d="M616 349 c-2 -8 -7 -26 -10 -40 -3 -15 -15 -29 -26 -32 -25 -6 -27
-45 -2 -54 22 -9 32 -23 32 -50 0 -32 28 -45 57 -26 21 14 25 14 46 0 29 -19
57 -6 57 26 0 27 10 41 33 50 24 9 22 48 -3 54 -11 3 -23 17 -26 32 -11 52
-13 54 -42 46 -15 -3 -34 -6 -42 -6 -8 0 -27 3 -42 6 -19 5 -29 3 -32 -6z
m102 -65 c26 -18 28 -41 5 -66 -20 -22 -41 -23 -65 -1 -23 21 -23 38 2 63 24
24 29 24 58 4z"/>
</g>
</svg>
