<svg width="16" height="16" viewBox="0 0 16 16" fill="none" xmlns="http://www.w3.org/2000/svg">
<path fill-rule="evenodd" clip-rule="evenodd" d="M10.625 1C11.15 1 11.5 1.35 11.5 1.875V4H14.25C14.6642 4 15 4.33579 15 4.75C15 5.16421 14.6642 5.5 14.25 5.5H1.75C1.33579 5.5 1 5.16421 1 4.75C1 4.33579 1.33579 4 1.75 4H4.5V1.875C4.5 1.35 4.85 1 5.375 1H10.625ZM6 4H10V2.33H6V4Z" fill="#BD0A2E"/>
<path d="M3 13.25V6.5H13V13.25C13 14.2125 11.9625 15 11 15H5C4.0375 15 3 14.2125 3 13.25Z" fill="#BD0A2E"/>
</svg>
