<svg width="16" height="16" viewBox="0 0 16 16" fill="none" xmlns="http://www.w3.org/2000/svg">
<path d="M6.50928 1.49854C4.69855 1.49854 3.07514 2.46634 2.16977 3.9961C1.26441 5.55707 1.26441 7.46146 2.16977 8.99122C3.07514 10.5522 4.69855 11.4888 6.50928 11.4888C8.2888 11.4888 9.91221 10.5522 10.8176 8.99122C11.7229 7.46146 11.7229 5.55707 10.8176 3.9961C9.91221 2.46634 8.2888 1.49854 6.50928 1.49854ZM6.50928 12.9873C2.91904 12.9873 0.015625 10.0839 0.015625 6.49366C0.015625 2.93463 2.91904 0 6.50928 0C10.0683 0 13.0029 2.93463 13.0029 6.49366C13.0029 8.02341 12.4722 9.42829 11.5981 10.5522L15.7503 14.7356C16.0625 15.0166 16.0625 15.4849 15.7503 15.7659C15.4693 16.078 15.001 16.078 14.72 15.7659L10.5366 11.6137C9.4127 12.4878 8.00782 12.9873 6.50928 12.9873ZM5.76002 9.24098V7.24293H3.76197C3.32489 7.24293 3.0127 6.93073 3.0127 6.49366C3.0127 6.08781 3.32489 5.74439 3.76197 5.74439H5.76002V3.74634C5.76002 3.34049 6.07221 2.99707 6.50928 2.99707C6.91514 2.99707 7.25855 3.34049 7.25855 3.74634V5.74439H9.2566C9.66245 5.74439 10.0059 6.08781 10.0059 6.49366C10.0059 6.93073 9.66245 7.24293 9.2566 7.24293H7.25855V9.24098C7.25855 9.67805 6.91514 9.99024 6.50928 9.99024C6.07221 9.99024 5.76002 9.67805 5.76002 9.24098Z" fill="#33768E"/>
</svg>
